<?xml version="1.0" encoding="UTF-8"?>
<svg id="Camada_2" data-name="Camada 2" xmlns="http://www.w3.org/2000/svg" viewBox="0 0 814.29 950">
  <defs>
    <style>
      .cls-1 {
        fill: #fff;
      }

      .cls-2 {
        fill: #1877bd;
      }
    </style>
  </defs>
  <g id="Camada_1-2" data-name="Camada 1">
    <rect class="cls-2" x="0" width="814.29" height="950" rx="64.61" ry="64.61"/>
    <g>
      <path class="cls-1" d="m313.45,468.13h69.65v35.61h-152.73v-29.67c48.72-36.85,103.69-67.15,103.69-108.38,0-19.05-11.87-31.86-31.54-31.86-17.8,0-29.67,9.99-29.67,25.3,0,2.81.31,5.62.94,7.18l-42.48,7.81c-.94-2.5-2.5-7.5-2.5-16.87,0-36.54,29.67-61.84,74.96-61.84s75.27,27.8,75.27,69.02-34.67,72.15-67.77,94.63c-4.06,3.12-12.18,7.5-14.37,8.43l.62,1.25c1.87-.31,8.12-.63,15.93-.63Z"/>
      <path class="cls-1" d="m408.08,401.92c0-65.59,31.23-106.5,88.08-106.5s89.01,40.91,89.01,106.5-31.54,104-89.01,104-88.08-39.04-88.08-104Zm133.05,0c0-43.73-17.18-68.09-44.97-68.09s-44.04,24.36-44.04,68.09,16.55,65.59,44.04,65.59,44.97-22.49,44.97-65.59Z"/>
    </g>
    <g>
      <path class="cls-1" d="m282.3,598.04l-62.71,16.42v-47.78l106-22.39h8.21v246.34h-51.51v-192.6Z"/>
      <path class="cls-1" d="m375.23,668.95c0-78.38,37.32-127.28,105.26-127.28s106.38,48.9,106.38,127.28-37.7,124.29-106.38,124.29-105.26-46.66-105.26-124.29Zm159,0c0-52.25-20.53-81.37-53.75-81.37s-52.63,29.11-52.63,81.37,19.78,78.38,52.63,78.38,53.75-26.88,53.75-78.38Z"/>
    </g>
    <g>
      <path class="cls-1" d="m301.97,224.99c0,30.07-15.38,45.86-41.71,45.86h-36.16v-91.45h31.87c29.79,0,46,18.01,46,45.59Zm-19.95,0c0-20.23-10.25-29.93-28.4-29.93h-9.84v60.13h14.13c14.69,0,24.11-8.59,24.11-30.21Z"/>
      <path class="cls-1" d="m365.99,249.79l9.01,10.39c-4.43,5.82-13.99,11.5-28.13,11.5-22.03,0-35.19-13.86-35.19-33.53s13.16-33.53,33.39-33.53c19.12,0,30.07,13.02,30.07,30.9,0,4.16-.55,6.93-.55,6.93h-44.06c1.66,8.73,7.76,14.83,18.57,14.83,9.28,0,14.13-4.43,16.9-7.48Zm-35.47-17.18h27.3c-.14-7.76-4.85-13.58-12.75-13.58-7.48,0-13.16,4.85-14.55,13.58Z"/>
      <path class="cls-1" d="m423.77,225.96c0-5.27-3.88-8.59-10.53-8.59-6.24,0-9.7,2.91-9.7,6.79,0,13.16,38.24,2.77,38.38,27.99.14,11.78-10.67,19.54-28.54,19.54-19.81,0-28.82-8.31-30.48-9.7l8.87-11.5c1.39,1.25,11.09,7.9,20.92,7.9,6.65,0,9.84-1.94,9.84-5.13,0-10.53-36.58-4.16-36.58-27.99,0-12.75,11.09-20.65,27.99-20.65,15.8,0,26.88,7.62,26.88,18.29,0,2.63-.55,4.43-.55,4.43l-16.77.97c.14-.55.28-1.39.28-2.36Z"/>
      <path class="cls-1" d="m519.52,173.03v97.82l-15.38.55c-.97-4.02-1.94-11.08-1.8-12.89h-.42c-3.6,7.76-10.53,13.16-21.75,13.16-17.74,0-28.96-13.99-28.96-33.25,0-21.62,13.3-33.81,29.93-33.81,9.42,0,15.66,3.6,19.4,8.87v-40.46h18.98Zm-18.98,67.34v-4.43c0-7.2-5.4-15.38-15.52-15.38-8.87,0-14.55,6.93-14.55,17.87s5.82,17.32,14.96,17.32,15.1-7.76,15.1-15.38Z"/>
      <path class="cls-1" d="m586.03,249.79l9.01,10.39c-4.43,5.82-13.99,11.5-28.13,11.5-22.03,0-35.19-13.86-35.19-33.53s13.16-33.53,33.39-33.53c19.12,0,30.07,13.02,30.07,30.9,0,4.16-.55,6.93-.55,6.93h-44.06c1.66,8.73,7.76,14.83,18.57,14.83,9.28,0,14.13-4.43,16.9-7.48Zm-35.47-17.18h27.3c-.14-7.76-4.85-13.58-12.75-13.58-7.48,0-13.16,4.85-14.55,13.58Z"/>
    </g>
  </g>
</svg>